# xmcd
# 
# Track frame offsets:
#     150
#     13060
#     29017
#     44762
#     56425
#     69157
#     82185
#     94675
#     108135
#     119965
# 
# Disc length: 1796
# 
# Revision: 2
# Processed by: cddbd v1.5.2PL0 Copyright (c) Steve Scherf et al.
# Submitted via: fre:ac v1.1beta1pre3
# 
DISCID=8a07020a
DTITLE=Various Artist - Country Memories Number 1 Hits
DYEAR=1998
DGENRE=Country
TTITLE0=Charlie Rich - The Most Beautiful Girl
TTITLE1=Johnny Lee - Lookin' For Love
TTITLE2=Ray Price - I Won't Mention It again
TTITLE3=Don Gibson - Oh Lonesome Me
TTITLE4=Bobby Helms - Fraulein
TTITLE5=Lynn Anderson - Rose Garden
TTITLE6=Johnny Paycheck - Take This Job And Shove It
TTITLE7=David Houston - Almost Persuaded
TTITLE8=Donna Fargo - The Happiest Girl In the Whole U.S.A.
TTITLE9=Jeannie C. Riley - Harper Valley P.T.A.
EXTD=\nYEAR: 1998  ID3G:   2
EXTT0=
EXTT1=
EXTT2=
EXTT3=
EXTT4=
EXTT5=
EXTT6=
EXTT7=
EXTT8=
EXTT9=
PLAYORDER=
